<svg xmlns="http://www.w3.org/2000/svg" viewBox="0 0 32 32" fill="none">
  <defs>
    <linearGradient id="fireGrad" x1="0" y1="0" x2="1" y2="1">
      <stop offset="0%" stop-color="#f97316"/>
      <stop offset="50%" stop-color="#ef4444"/>
      <stop offset="100%" stop-color="#f59e0b"/>
    </linearGradient>
  </defs>
  <!-- Background circle -->
  <rect width="32" height="32" rx="8" fill="#1e3a5f"/>
  <!-- Flame icon -->
  <path d="M16 4C16 4 14 10 10 12C8 13 7 15 7 17C7 21.418 11.134 25 16 25C20.866 25 25 21.418 25 17C25 15 24 13 22 12C18 10 16 4 16 4Z" fill="url(#fireGrad)"/>
  <path d="M16 12C16 12 15 15 13 16.5C12 17 11.5 18 11.5 19C11.5 21.209 13.515 23 16 23C18.485 23 20.5 21.209 20.5 19C20.5 18 20 17 19 16.5C17 15 16 12 16 12Z" fill="#fde68a" opacity="0.8"/>
</svg>
